<mxfile host="Electron" agent="Mozilla/5.0 (Windows NT 10.0; Win64; x64) AppleWebKit/537.36 (KHTML, like Gecko) draw.io/28.1.2 Chrome/138.0.7204.243 Electron/37.4.0 Safari/537.36" version="28.1.2">
  <diagram name="Página-1" id="4NHIGNd7U39ykUtTGwLA">
    <mxGraphModel dx="1426" dy="841" grid="1" gridSize="10" guides="1" tooltips="1" connect="1" arrows="1" fold="1" page="1" pageScale="1" pageWidth="4681" pageHeight="3300" math="0" shadow="0">
      <root>
        <mxCell id="0" />
        <mxCell id="1" parent="0" />
        <mxCell id="i_0QaJw6XAjoiwCNlrFg-10" value="" style="edgeStyle=orthogonalEdgeStyle;rounded=0;orthogonalLoop=1;jettySize=auto;html=1;" edge="1" parent="1" source="i_0QaJw6XAjoiwCNlrFg-1" target="i_0QaJw6XAjoiwCNlrFg-9">
          <mxGeometry relative="1" as="geometry" />
        </mxCell>
        <mxCell id="i_0QaJw6XAjoiwCNlrFg-19" value="" style="edgeStyle=orthogonalEdgeStyle;rounded=0;orthogonalLoop=1;jettySize=auto;html=1;" edge="1" parent="1" source="i_0QaJw6XAjoiwCNlrFg-1" target="i_0QaJw6XAjoiwCNlrFg-18">
          <mxGeometry relative="1" as="geometry" />
        </mxCell>
        <mxCell id="i_0QaJw6XAjoiwCNlrFg-1" value="Cliente" style="rounded=1;arcSize=10;whiteSpace=wrap;html=1;align=center;" vertex="1" parent="1">
          <mxGeometry x="240" y="410" width="100" height="40" as="geometry" />
        </mxCell>
        <mxCell id="i_0QaJw6XAjoiwCNlrFg-2" value="Livro" style="rounded=1;arcSize=10;whiteSpace=wrap;html=1;align=center;" vertex="1" parent="1">
          <mxGeometry x="580" y="690" width="100" height="40" as="geometry" />
        </mxCell>
        <mxCell id="i_0QaJw6XAjoiwCNlrFg-3" value="Compra" style="rounded=1;arcSize=10;whiteSpace=wrap;html=1;align=center;" vertex="1" parent="1">
          <mxGeometry x="240" y="690" width="100" height="40" as="geometry" />
        </mxCell>
        <mxCell id="i_0QaJw6XAjoiwCNlrFg-4" value="Autor" style="rounded=1;arcSize=10;whiteSpace=wrap;html=1;align=center;" vertex="1" parent="1">
          <mxGeometry x="1080" y="690" width="100" height="40" as="geometry" />
        </mxCell>
        <mxCell id="i_0QaJw6XAjoiwCNlrFg-22" value="" style="edgeStyle=orthogonalEdgeStyle;rounded=0;orthogonalLoop=1;jettySize=auto;html=1;" edge="1" parent="1" source="i_0QaJw6XAjoiwCNlrFg-5" target="i_0QaJw6XAjoiwCNlrFg-21">
          <mxGeometry relative="1" as="geometry" />
        </mxCell>
        <mxCell id="i_0QaJw6XAjoiwCNlrFg-5" value="Avaliação" style="rounded=1;arcSize=10;whiteSpace=wrap;html=1;align=center;" vertex="1" parent="1">
          <mxGeometry x="580" y="410" width="100" height="40" as="geometry" />
        </mxCell>
        <mxCell id="i_0QaJw6XAjoiwCNlrFg-11" style="edgeStyle=orthogonalEdgeStyle;rounded=0;orthogonalLoop=1;jettySize=auto;html=1;entryX=0.5;entryY=0;entryDx=0;entryDy=0;" edge="1" parent="1" source="i_0QaJw6XAjoiwCNlrFg-9" target="i_0QaJw6XAjoiwCNlrFg-3">
          <mxGeometry relative="1" as="geometry" />
        </mxCell>
        <mxCell id="i_0QaJw6XAjoiwCNlrFg-9" value="Realiza" style="rhombus;whiteSpace=wrap;html=1;rounded=1;arcSize=10;" vertex="1" parent="1">
          <mxGeometry x="250" y="530" width="80" height="80" as="geometry" />
        </mxCell>
        <mxCell id="i_0QaJw6XAjoiwCNlrFg-20" style="edgeStyle=orthogonalEdgeStyle;rounded=0;orthogonalLoop=1;jettySize=auto;html=1;entryX=0;entryY=0.5;entryDx=0;entryDy=0;" edge="1" parent="1" source="i_0QaJw6XAjoiwCNlrFg-18" target="i_0QaJw6XAjoiwCNlrFg-5">
          <mxGeometry relative="1" as="geometry" />
        </mxCell>
        <mxCell id="i_0QaJw6XAjoiwCNlrFg-18" value="Deixa" style="rhombus;whiteSpace=wrap;html=1;rounded=1;arcSize=10;" vertex="1" parent="1">
          <mxGeometry x="420" y="390" width="80" height="80" as="geometry" />
        </mxCell>
        <mxCell id="i_0QaJw6XAjoiwCNlrFg-23" style="edgeStyle=orthogonalEdgeStyle;rounded=0;orthogonalLoop=1;jettySize=auto;html=1;entryX=0.5;entryY=0;entryDx=0;entryDy=0;" edge="1" parent="1" source="i_0QaJw6XAjoiwCNlrFg-21" target="i_0QaJw6XAjoiwCNlrFg-2">
          <mxGeometry relative="1" as="geometry" />
        </mxCell>
        <mxCell id="i_0QaJw6XAjoiwCNlrFg-21" value="Relaciona" style="rhombus;whiteSpace=wrap;html=1;rounded=1;arcSize=10;" vertex="1" parent="1">
          <mxGeometry x="590" y="530" width="80" height="80" as="geometry" />
        </mxCell>
        <mxCell id="i_0QaJw6XAjoiwCNlrFg-24" value="1:N" style="text;html=1;align=center;verticalAlign=middle;resizable=0;points=[];autosize=1;strokeColor=none;fillColor=none;" vertex="1" parent="1">
          <mxGeometry x="240" y="450" width="40" height="30" as="geometry" />
        </mxCell>
        <mxCell id="i_0QaJw6XAjoiwCNlrFg-25" value="1:1" style="text;html=1;align=center;verticalAlign=middle;resizable=0;points=[];autosize=1;strokeColor=none;fillColor=none;" vertex="1" parent="1">
          <mxGeometry x="240" y="660" width="40" height="30" as="geometry" />
        </mxCell>
        <mxCell id="i_0QaJw6XAjoiwCNlrFg-26" value="0:N" style="text;html=1;align=center;verticalAlign=middle;resizable=0;points=[];autosize=1;strokeColor=none;fillColor=none;" vertex="1" parent="1">
          <mxGeometry x="340" y="410" width="40" height="30" as="geometry" />
        </mxCell>
        <mxCell id="i_0QaJw6XAjoiwCNlrFg-28" value="1:1" style="text;html=1;align=center;verticalAlign=middle;resizable=0;points=[];autosize=1;strokeColor=none;fillColor=none;" vertex="1" parent="1">
          <mxGeometry x="540" y="410" width="40" height="30" as="geometry" />
        </mxCell>
        <mxCell id="i_0QaJw6XAjoiwCNlrFg-29" value="1:1" style="text;html=1;align=center;verticalAlign=middle;resizable=0;points=[];autosize=1;strokeColor=none;fillColor=none;" vertex="1" parent="1">
          <mxGeometry x="630" y="450" width="40" height="30" as="geometry" />
        </mxCell>
        <mxCell id="i_0QaJw6XAjoiwCNlrFg-30" value="0:N" style="text;html=1;align=center;verticalAlign=middle;resizable=0;points=[];autosize=1;strokeColor=none;fillColor=none;" vertex="1" parent="1">
          <mxGeometry x="635" y="660" width="40" height="30" as="geometry" />
        </mxCell>
        <mxCell id="i_0QaJw6XAjoiwCNlrFg-39" value="" style="edgeStyle=orthogonalEdgeStyle;rounded=0;orthogonalLoop=1;jettySize=auto;html=1;" edge="1" parent="1" source="i_0QaJw6XAjoiwCNlrFg-34" target="i_0QaJw6XAjoiwCNlrFg-38">
          <mxGeometry relative="1" as="geometry" />
        </mxCell>
        <mxCell id="i_0QaJw6XAjoiwCNlrFg-44" style="edgeStyle=orthogonalEdgeStyle;rounded=0;orthogonalLoop=1;jettySize=auto;html=1;entryX=0.5;entryY=0;entryDx=0;entryDy=0;" edge="1" parent="1" source="i_0QaJw6XAjoiwCNlrFg-34" target="i_0QaJw6XAjoiwCNlrFg-43">
          <mxGeometry relative="1" as="geometry" />
        </mxCell>
        <mxCell id="i_0QaJw6XAjoiwCNlrFg-34" value="Livro_Autor" style="shape=ext;margin=3;double=1;whiteSpace=wrap;html=1;align=center;" vertex="1" parent="1">
          <mxGeometry x="810" y="550" width="100" height="40" as="geometry" />
        </mxCell>
        <mxCell id="i_0QaJw6XAjoiwCNlrFg-40" style="edgeStyle=orthogonalEdgeStyle;rounded=0;orthogonalLoop=1;jettySize=auto;html=1;entryX=1;entryY=0.5;entryDx=0;entryDy=0;" edge="1" parent="1" source="i_0QaJw6XAjoiwCNlrFg-38" target="i_0QaJw6XAjoiwCNlrFg-2">
          <mxGeometry relative="1" as="geometry" />
        </mxCell>
        <mxCell id="i_0QaJw6XAjoiwCNlrFg-38" value="Liga" style="rhombus;whiteSpace=wrap;html=1;" vertex="1" parent="1">
          <mxGeometry x="750" y="630" width="40" height="40" as="geometry" />
        </mxCell>
        <mxCell id="i_0QaJw6XAjoiwCNlrFg-45" style="edgeStyle=orthogonalEdgeStyle;rounded=0;orthogonalLoop=1;jettySize=auto;html=1;entryX=0;entryY=0.5;entryDx=0;entryDy=0;" edge="1" parent="1" source="i_0QaJw6XAjoiwCNlrFg-43" target="i_0QaJw6XAjoiwCNlrFg-4">
          <mxGeometry relative="1" as="geometry" />
        </mxCell>
        <mxCell id="i_0QaJw6XAjoiwCNlrFg-43" value="Liga" style="rhombus;whiteSpace=wrap;html=1;" vertex="1" parent="1">
          <mxGeometry x="950" y="630" width="40" height="40" as="geometry" />
        </mxCell>
        <mxCell id="i_0QaJw6XAjoiwCNlrFg-46" value="1:N" style="text;html=1;align=center;verticalAlign=middle;resizable=0;points=[];autosize=1;strokeColor=none;fillColor=none;" vertex="1" parent="1">
          <mxGeometry x="970" y="570" width="40" height="30" as="geometry" />
        </mxCell>
        <mxCell id="i_0QaJw6XAjoiwCNlrFg-47" value="1:N" style="text;html=1;align=center;verticalAlign=middle;resizable=0;points=[];autosize=1;strokeColor=none;fillColor=none;" vertex="1" parent="1">
          <mxGeometry x="730" y="570" width="40" height="30" as="geometry" />
        </mxCell>
        <mxCell id="i_0QaJw6XAjoiwCNlrFg-53" style="edgeStyle=orthogonalEdgeStyle;rounded=0;orthogonalLoop=1;jettySize=auto;html=1;entryX=0.5;entryY=1;entryDx=0;entryDy=0;" edge="1" parent="1" source="i_0QaJw6XAjoiwCNlrFg-50" target="i_0QaJw6XAjoiwCNlrFg-52">
          <mxGeometry relative="1" as="geometry" />
        </mxCell>
        <mxCell id="i_0QaJw6XAjoiwCNlrFg-56" style="edgeStyle=orthogonalEdgeStyle;rounded=0;orthogonalLoop=1;jettySize=auto;html=1;entryX=0.5;entryY=1;entryDx=0;entryDy=0;" edge="1" parent="1" source="i_0QaJw6XAjoiwCNlrFg-50" target="i_0QaJw6XAjoiwCNlrFg-55">
          <mxGeometry relative="1" as="geometry" />
        </mxCell>
        <mxCell id="i_0QaJw6XAjoiwCNlrFg-50" value="Compra_Livro" style="shape=ext;margin=3;double=1;whiteSpace=wrap;html=1;align=center;" vertex="1" parent="1">
          <mxGeometry x="410" y="840" width="100" height="40" as="geometry" />
        </mxCell>
        <mxCell id="i_0QaJw6XAjoiwCNlrFg-54" style="edgeStyle=orthogonalEdgeStyle;rounded=0;orthogonalLoop=1;jettySize=auto;html=1;entryX=1;entryY=0.5;entryDx=0;entryDy=0;" edge="1" parent="1" source="i_0QaJw6XAjoiwCNlrFg-52" target="i_0QaJw6XAjoiwCNlrFg-3">
          <mxGeometry relative="1" as="geometry" />
        </mxCell>
        <mxCell id="i_0QaJw6XAjoiwCNlrFg-52" value="Liga" style="rhombus;whiteSpace=wrap;html=1;" vertex="1" parent="1">
          <mxGeometry x="380" y="730" width="40" height="40" as="geometry" />
        </mxCell>
        <mxCell id="i_0QaJw6XAjoiwCNlrFg-57" style="edgeStyle=orthogonalEdgeStyle;rounded=0;orthogonalLoop=1;jettySize=auto;html=1;entryX=0;entryY=0.5;entryDx=0;entryDy=0;" edge="1" parent="1" source="i_0QaJw6XAjoiwCNlrFg-55" target="i_0QaJw6XAjoiwCNlrFg-2">
          <mxGeometry relative="1" as="geometry" />
        </mxCell>
        <mxCell id="i_0QaJw6XAjoiwCNlrFg-55" value="Liga" style="rhombus;whiteSpace=wrap;html=1;" vertex="1" parent="1">
          <mxGeometry x="500" y="730" width="40" height="40" as="geometry" />
        </mxCell>
        <mxCell id="i_0QaJw6XAjoiwCNlrFg-58" value="1:N" style="text;html=1;align=center;verticalAlign=middle;resizable=0;points=[];autosize=1;strokeColor=none;fillColor=none;" vertex="1" parent="1">
          <mxGeometry x="360" y="778" width="40" height="30" as="geometry" />
        </mxCell>
        <mxCell id="i_0QaJw6XAjoiwCNlrFg-59" value="1:N" style="text;html=1;align=center;verticalAlign=middle;resizable=0;points=[];autosize=1;strokeColor=none;fillColor=none;" vertex="1" parent="1">
          <mxGeometry x="520" y="778" width="40" height="30" as="geometry" />
        </mxCell>
      </root>
    </mxGraphModel>
  </diagram>
</mxfile>
